<?xml version="1.0" encoding="UTF-8"?>
<!DOCTYPE svg PUBLIC "-//W3C//DTD SVG 1.1//EN" "http://www.w3.org/Graphics/SVG/1.1/DTD/svg11.dtd">
<!-- Creator: CorelDRAW -->
<svg xmlns="http://www.w3.org/2000/svg" xml:space="preserve" width="512px" height="512px" version="1.1" style="shape-rendering:geometricPrecision; text-rendering:geometricPrecision; image-rendering:optimizeQuality; fill-rule:evenodd; clip-rule:evenodd"
viewBox="0 0 512 512"
 xmlns:xlink="http://www.w3.org/1999/xlink">
 <defs>
  <style type="text/css">
   <![CDATA[
    .fil0 {fill:black}
   ]]>
  </style>
 </defs>
 <g id="Layer_x0020_1">
  <metadata id="CorelCorpID_0Corel-Layer"/>
  <g id="_339887368">
   <g>
    <path class="fil0" d="M304 512l-197 0c-25,0 -47,-22 -47,-47l1 -276c0,-10 7,-17 17,-17l255 0c10,0 17,7 17,17l0 276c0,12 -4,24 -13,33 -8,9 -20,14 -33,14zm-226 -326c-3,0 -3,1 -3,3l0 276c0,18 14,33 32,33l197 0c18,0 32,-15 32,-33l0 -276c0,-2 0,-3 -3,-3l-255 0z"/>
   </g>
   <g>
    <path class="fil0" d="M381 433l-38 0c-3,0 -7,-3 -7,-7 0,-4 4,-7 7,-7l38 0c31,0 56,-30 56,-66l0 -64c0,-36 -25,-67 -56,-67l-38 0c-3,0 -7,-3 -7,-7 0,-4 4,-7 7,-7l38 0c19,0 37,9 50,24 13,15 21,36 21,57l0 64c0,21 -8,41 -21,56 -13,15 -31,24 -50,24z"/>
   </g>
   <g>
    <path class="fil0" d="M374 404l-31 0c-3,0 -7,-3 -7,-7 0,-4 4,-7 7,-7l31 0c17,0 30,-14 30,-31l0 -77c0,-17 -13,-30 -30,-30l-31 0c-3,0 -7,-3 -7,-7 0,-4 4,-7 7,-7l31 0c25,0 44,20 44,44l0 77c0,25 -19,45 -44,45z"/>
   </g>
   <g>
    <path class="fil0" d="M221 186c0,0 0,0 0,0 -4,0 -7,-3 -6,-7l1 -47c0,-6 -6,-10 -10,-10 -3,0 -6,1 -8,3 -1,1 -2,3 -2,6 0,1 0,1 0,1l1 47c1,4 -3,7 -6,7 -4,0 -7,-3 -7,-7l-1 -46c-1,-7 1,-13 5,-17 4,-5 11,-8 18,-8 13,0 24,11 24,24 0,0 0,0 0,0l-1 47c-1,4 -4,7 -8,7z"/>
   </g>
   <g>
    <path class="fil0" d="M226 137c-1,0 -3,0 -5,0 -3,-1 -6,-4 -5,-8 0,-4 4,-7 8,-6 5,1 9,-1 12,-6 7,-14 2,-43 -7,-52 -3,-3 -5,-2 -6,-2 -2,1 -3,1 -4,1 -5,0 -9,-4 -13,-10 -4,-8 -7,-20 -8,-26 0,-2 0,-3 0,-5 -15,14 -24,34 -25,54 -1,13 2,32 21,47 3,2 3,6 1,9 -2,3 -7,4 -10,2 -18,-15 -27,-35 -26,-59 1,-28 17,-57 42,-73 2,-2 6,-1 8,1 2,2 3,5 2,7 0,3 1,11 3,21 2,11 5,16 6,17 7,-2 14,1 19,6 14,15 19,50 9,68 -5,9 -12,14 -22,14zm-15 -125c0,0 0,0 0,0 0,0 0,0 0,0z"/>
   </g>
   <g>
    <path class="fil0" d="M206 122c-4,0 -7,-3 -7,-6l-5 -44c0,-4 3,-8 7,-8 4,0 7,2 7,6l4 44c1,4 -2,8 -6,8 0,0 0,0 0,0z"/>
   </g>
   <g>
    <path class="fil0" d="M136 186c-4,0 -8,-3 -8,-7l0 -70 -35 0 0 70c0,4 -3,7 -7,7 -3,0 -7,-3 -7,-7l0 -77c0,-4 4,-7 7,-7l50 0c3,0 7,3 7,7l0 77c0,4 -4,7 -7,7z"/>
   </g>
   <g>
    <path class="fil0" d="M136 109c-3,0 -6,-2 -7,-5l-19 -54 -17 54c-1,4 -5,6 -9,5 -3,-1 -5,-5 -4,-9l23 -74c1,-3 3,-5 6,-5 3,0 6,2 7,5l26 74c1,3 -1,7 -4,9 -1,0 -2,0 -2,0z"/>
   </g>
   <g>
    <path class="fil0" d="M111 186c-4,0 -7,-3 -7,-7l0 -77c0,-4 3,-7 7,-7 3,0 7,3 7,7l0 77c-1,4 -4,7 -7,7z"/>
   </g>
   <g>
    <path class="fil0" d="M270 186c-3,0 -7,-3 -7,-7l-1 -159c0,-11 10,-20 21,-20l29 0c11,0 19,8 19,19l0 160c0,4 -3,7 -7,7 -3,0 -7,-3 -7,-7l0 -160c0,-3 -1,-5 -5,-5l-29 0c-3,0 -7,3 -7,6l1 159c0,4 -3,7 -7,7 0,0 0,0 0,0z"/>
   </g>
   <g>
    <path class="fil0" d="M324 63l-55 0c-3,0 -7,-3 -7,-7 0,-4 4,-7 7,-7l55 0c4,0 7,3 7,7 0,4 -3,7 -7,7z"/>
   </g>
   <g>
    <path class="fil0" d="M297 186c-3,0 -7,-3 -7,-7l0 -123c0,-4 4,-7 7,-7 4,0 7,3 7,7l0 123c0,4 -3,7 -7,7z"/>
   </g>
  </g>
 </g>
</svg>
