<?xml version="1.0" encoding="UTF-8" standalone="no"?> <svg id="_1_-_10" data-name="1 - 10" xmlns="http://www.w3.org/2000/svg" viewBox="0 0 48 48"><title>Muscle</title><g id="Muscle"><path d="M40.87,13.437l-.952-2.856A7.008,7.008,0,0,0,35.32,6.1C32.158,5.144,27.974,4,26,4c-2.048,0-3.458,2.521-4.434,7.931a5.021,5.021,0,0,0,3.941,5.79l.692.136a1.026,1.026,0,0,1,.524.28l.7.7a2.977,2.977,0,0,0,3.06.723l.524-.175c0,1.039.01,2.478.011,3.639A3.012,3.012,0,0,1,30,25.188a6.33,6.33,0,0,0-1.628,2.562,14.648,14.648,0,0,0-6.59-2.59,12.4,12.4,0,0,0-7.045.854A11.982,11.982,0,0,0,5,21a1,1,0,0,0,0,2A10.011,10.011,0,0,1,15,33a1,1,0,0,0,2,0,11.913,11.913,0,0,0-1.224-5.247A10.432,10.432,0,0,1,21.5,27.14,12.171,12.171,0,0,1,28,30.025a8.883,8.883,0,0,0,.683,3.411,1,1,0,0,0,1.847-.769A6.9,6.9,0,0,1,30,30a4.56,4.56,0,0,1,1.376-3.36,4.986,4.986,0,0,0,1.642-3.617c0-2.072-.018-5.029-.018-5.029a1,1,0,0,0-1.316-.943l-1.833.611a.988.988,0,0,1-1.014-.239l-.7-.7a3,3,0,0,0-1.552-.827L25.9,15.76a3.013,3.013,0,0,1-2.363-3.472C24.465,7.129,25.63,6,26,6a41.926,41.926,0,0,1,8.742,2.018,5,5,0,0,1,3.279,3.2l.951,2.853A58.893,58.893,0,0,1,42,32.727V36.06A5.006,5.006,0,0,1,37.761,41,99.731,99.731,0,0,1,23,42C10.426,42,5.417,40.09,5.372,40.071a1,1,0,1,0-.744,1.858C4.84,42.013,9.958,44,23,44a101.7,101.7,0,0,0,15.056-1.021A7.016,7.016,0,0,0,44,36.06V32.727A60.889,60.889,0,0,0,40.87,13.437Z"/></g></svg>